<svg xmlns="http://www.w3.org/2000/svg" xmlns:xlink="http://www.w3.org/1999/xlink" width="267.596" height="55.915" viewBox="0 0 267.596 55.915">
  <defs>
    <linearGradient id="linear-gradient" x1="-0.59" y1="1.841" x2="0.794" y2="-0.038" gradientUnits="objectBoundingBox">
      <stop offset="0" stop-color="#0452bf"/>
      <stop offset="0.504" stop-color="#00359b"/>
      <stop offset="1" stop-color="#cd128a"/>
    </linearGradient>
    <linearGradient id="linear-gradient-2" x1="-1.193" y1="2.828" x2="1.253" y2="-0.669" xlink:href="#linear-gradient"/>
    <linearGradient id="linear-gradient-3" x1="-2.779" y1="2.628" x2="0.453" y2="0.418" xlink:href="#linear-gradient"/>
  </defs>
  <g id="Group_112440" data-name="Group 112440" transform="translate(-184 -33.543)" style="isolation: isolate">
    <g id="Group_4927" data-name="Group 4927" transform="translate(149.5 -91.873)">
      <g id="Group_4927-2" data-name="Group 4927" transform="translate(118.524 133.41)">
        <path id="Path_10204" data-name="Path 10204" d="M290.172,174.256a12.728,12.728,0,0,1-4.875-4.8,14.256,14.256,0,0,1,0-13.851,12.771,12.771,0,0,1,4.875-4.781,14.164,14.164,0,0,1,13.53,0,12.649,12.649,0,0,1,4.856,4.781,14.388,14.388,0,0,1,0,13.851,12.608,12.608,0,0,1-4.856,4.8,14.166,14.166,0,0,1-13.53,0Zm11.394-3.212a8.257,8.257,0,0,0,3.194-3.4,10.925,10.925,0,0,0,1.152-5.121,10.813,10.813,0,0,0-1.152-5.1,8.164,8.164,0,0,0-3.194-3.364,9.808,9.808,0,0,0-9.3,0,8.16,8.16,0,0,0-3.194,3.364,10.81,10.81,0,0,0-1.152,5.1,10.921,10.921,0,0,0,1.152,5.121,8.253,8.253,0,0,0,3.194,3.4,9.671,9.671,0,0,0,9.3,0Z" transform="translate(-283.501 -149.105)" fill="#001427"/>
        <path id="Path_10205" data-name="Path 10205" d="M384.954,166.254A7.262,7.262,0,0,1,388,169.278a9.951,9.951,0,0,1,1.1,4.837V186.4h-4.271v-11.64a6.047,6.047,0,0,0-1.4-4.29,4.979,4.979,0,0,0-3.817-1.493,5.039,5.039,0,0,0-3.836,1.493,6,6,0,0,0-1.417,4.29V186.4h-4.308V165.574h4.308v2.381a7.132,7.132,0,0,1,2.7-2,8.639,8.639,0,0,1,3.5-.718A9.338,9.338,0,0,1,384.954,166.254Z" transform="translate(-340.841 -159.791)" fill="#001427"/>
        <path id="Path_10206" data-name="Path 10206" d="M453.365,177.592H437.454a5.774,5.774,0,0,0,1.852,4.006,5.843,5.843,0,0,0,4.081,1.511,5.041,5.041,0,0,0,4.913-2.91h4.649a9.385,9.385,0,0,1-3.42,4.705,10.036,10.036,0,0,1-6.141,1.833,10.633,10.633,0,0,1-5.348-1.342,9.539,9.539,0,0,1-3.7-3.779,11.527,11.527,0,0,1-1.341-5.65,11.8,11.8,0,0,1,1.3-5.65,9.168,9.168,0,0,1,3.666-3.76,10.911,10.911,0,0,1,5.423-1.322,10.609,10.609,0,0,1,5.253,1.285,9.085,9.085,0,0,1,3.59,3.609,10.878,10.878,0,0,1,1.285,5.348A13.488,13.488,0,0,1,453.365,177.592Zm-4.346-3.477a4.9,4.9,0,0,0-1.7-3.817,6.083,6.083,0,0,0-4.12-1.436,5.533,5.533,0,0,0-3.817,1.417,5.923,5.923,0,0,0-1.89,3.836Z" transform="translate(-382.549 -159.791)" fill="#001427"/>
        <path id="Path_10207" data-name="Path 10207" d="M517.328,150.113v3.515H506.179v7.747h8.692v3.514h-8.692v11.489h-4.309V150.113Z" transform="translate(-428.183 -149.773)" fill="#001427"/>
        <path id="Path_10208" data-name="Path 10208" d="M551.956,185.4a9.635,9.635,0,0,1-3.742-3.779,11.4,11.4,0,0,1-1.361-5.65,11.18,11.18,0,0,1,1.4-5.631,9.659,9.659,0,0,1,3.817-3.779,11.7,11.7,0,0,1,10.809,0,9.667,9.667,0,0,1,3.817,3.779,11.181,11.181,0,0,1,1.4,5.631,10.951,10.951,0,0,1-1.436,5.631,9.943,9.943,0,0,1-3.912,3.8,11.274,11.274,0,0,1-5.461,1.342A10.664,10.664,0,0,1,551.956,185.4ZM560.4,182.2a6.048,6.048,0,0,0,2.362-2.381,7.655,7.655,0,0,0,.907-3.855,7.816,7.816,0,0,0-.869-3.836,5.874,5.874,0,0,0-2.305-2.362,6.305,6.305,0,0,0-3.1-.793,6.2,6.2,0,0,0-3.08.793,5.667,5.667,0,0,0-2.249,2.362,8.106,8.106,0,0,0-.831,3.836,7.3,7.3,0,0,0,1.719,5.2A5.679,5.679,0,0,0,557.285,183,6.413,6.413,0,0,0,560.4,182.2Z" transform="translate(-457.987 -159.791)" fill="#001427"/>
        <path id="Path_10209" data-name="Path 10209" d="M624.793,166.122a7.433,7.433,0,0,1,3.722-.888v4.459h-1.1a5.248,5.248,0,0,0-3.836,1.285q-1.3,1.285-1.3,4.459V186.4h-4.308V165.574h4.308V168.6A6.763,6.763,0,0,1,624.793,166.122Z" transform="translate(-505.106 -159.791)" fill="#001427"/>
        <path id="Path_10210" data-name="Path 10210" d="M686.106,166.254a7.376,7.376,0,0,1,3.061,3.023,9.815,9.815,0,0,1,1.115,4.837V186.4h-4.271v-11.64a6.049,6.049,0,0,0-1.4-4.29,4.978,4.978,0,0,0-3.817-1.493,5.039,5.039,0,0,0-3.836,1.493,6,6,0,0,0-1.417,4.29V186.4h-4.271v-11.64a6.049,6.049,0,0,0-1.4-4.29,4.979,4.979,0,0,0-3.817-1.493,5.039,5.039,0,0,0-3.836,1.493,6,6,0,0,0-1.417,4.29V186.4H656.5V165.574H660.8v2.381a7.165,7.165,0,0,1,2.683-2,8.506,8.506,0,0,1,3.477-.718,9.262,9.262,0,0,1,4.46,1.058,7.24,7.24,0,0,1,3.023,3.061,6.982,6.982,0,0,1,2.948-3,8.719,8.719,0,0,1,4.309-1.115A9.339,9.339,0,0,1,686.106,166.254Z" transform="translate(-530.631 -159.791)" fill="#001427"/>
        <path id="Path_10211" data-name="Path 10211" d="M765.428,170.336a9.5,9.5,0,0,1,8.522-5.1,9.092,9.092,0,0,1,4.29.963,8.713,8.713,0,0,1,2.929,2.4v-3.023h4.347V186.4h-4.347v-3.1a8.561,8.561,0,0,1-2.985,2.456,9.659,9.659,0,0,1-9.221-.4,9.777,9.777,0,0,1-3.534-3.855,11.855,11.855,0,0,1-1.3-5.612A11.525,11.525,0,0,1,765.428,170.336Zm14.853,1.89a6.237,6.237,0,0,0-2.324-2.419,6.084,6.084,0,0,0-3.1-.831,6.188,6.188,0,0,0-3.1.813,6.124,6.124,0,0,0-2.324,2.381,7.429,7.429,0,0,0-.888,3.722,7.752,7.752,0,0,0,.888,3.779,6.264,6.264,0,0,0,2.343,2.475,6.009,6.009,0,0,0,3.08.85,6.078,6.078,0,0,0,3.1-.831,6.2,6.2,0,0,0,2.324-2.437,7.651,7.651,0,0,0,.888-3.76A7.542,7.542,0,0,0,780.28,172.225Z" transform="translate(-601.941 -159.791)" fill="#001427"/>
      </g>
      <g id="Group_4928" data-name="Group 4928" transform="translate(34.5 125.416)">
        <path id="Path_10212" data-name="Path 10212" d="M39.8,157.885c3.968,3.217,10.823,3.28,20.416-3.362S72.6,140.761,84.8,135.244h0a28.359,28.359,0,0,0-21.631-9.828C43.249,125.416,25.224,146.068,39.8,157.885Z" transform="translate(-34.5 -125.416)" fill="url(#linear-gradient)"/>
        <path id="Path_10213" data-name="Path 10213" d="M119.909,246.462c-1.526,10.773,13.61,9.283,19.256,4.577a29.939,29.939,0,0,0,9.088-15.016S121.378,236.092,119.909,246.462Z" transform="translate(-91.017 -198.699)" fill="url(#linear-gradient-2)"/>
        <path id="Path_10214" data-name="Path 10214" d="M190.733,148.847a13.7,13.7,0,0,0-7.174,1.921c.024.042.045.083.069.125a31.09,31.09,0,0,1,6.876,27.368c7.879-.072,14.59-7.162,14.59-15.053A14.361,14.361,0,0,0,190.733,148.847Z" transform="translate(-133.26 -140.94)" fill="url(#linear-gradient-3)"/>
      </g>
    </g>
  </g>
</svg>
