<svg xmlns="http://www.w3.org/2000/svg" xmlns:xlink="http://www.w3.org/1999/xlink" id="Layer_1" x="0px" y="0px" viewBox="0 0 162 52" style="enable-background:new 0 0 162 52;" xml:space="preserve"><style type="text/css">	.st0{fill:#3CCBDA;}	.st1{fill:#2F2A95;}</style><g>	<path class="st0" d="M48.9,46.4c0,0.9-0.7,1.6-1.6,1.6H6.1c-0.9,0-1.6-0.7-1.6-1.6V5.3c0-0.9,0.7-1.6,1.6-1.6h41.1  c0.9,0,1.6,0.7,1.6,1.6V46.4z M47.3,0.2H6.1C3.3,0.2,1,2.5,1,5.3v41.1c0,2.8,2.3,5.1,5.1,5.1h41.1c2.8,0,5.1-2.3,5.1-5.1V5.3  C52.4,2.5,50.1,0.2,47.3,0.2"></path>	<path class="st1" d="M26.7,16.8H12.3c-1.2,0-2.1,1-2.1,2.1c0,1.2,1,2.1,2.1,2.1h14.3c1.2,0,2.1-1,2.1-2.1  C28.8,17.8,27.9,16.8,26.7,16.8"></path>	<path class="st1" d="M33.9,24H19.5c-1.2,0-2.1,1-2.1,2.1c0,1.2,1,2.1,2.1,2.1h14.4c1.2,0,2.1-1,2.1-2.1C36,24.9,35.1,24,33.9,24"></path>	<path class="st1" d="M41.1,35.4c1.2,0,2.1-1,2.1-2.1c0-1.2-1-2.1-2.1-2.1H26.7c-1.2,0-2.1,1-2.1,2.1c0,1.2,1,2.1,2.1,2.1H41.1z"></path>	<path class="st0" d="M41.1,24c-1.2,0-2.1,1-2.1,2.1c0,1.2,1,2.1,2.1,2.1c1.2,0,2.1-1,2.1-2.1C43.2,24.9,42.2,24,41.1,24"></path>	<path class="st0" d="M41.1,16.8h-7.2c-1.2,0-2.1,1-2.1,2.1c0,1.2,1,2.1,2.1,2.1h7.2c1.2,0,2.1-1,2.1-2.1  C43.2,17.7,42.2,16.8,41.1,16.8"></path>	<path class="st0" d="M12.3,28.3c1.2,0,2.1-1,2.1-2.1c0-1.2-1-2.1-2.1-2.1c-1.2,0-2.1,1-2.1,2.1C10.2,27.3,11.1,28.3,12.3,28.3"></path>	<path class="st0" d="M12.3,35.4h7.2c1.2,0,2.1-1,2.1-2.1c0-1.2-1-2.1-2.1-2.1h-7.2c-1.2,0-2.1,1-2.1,2.1  C10.2,34.5,11.1,35.4,12.3,35.4"></path>	<path class="st0" d="M41.1,38.3c-1.2,0-2.1,1-2.1,2.1c0,1.2,1,2.1,2.1,2.1c1.2,0,2.1-1,2.1-2.1C43.2,39.3,42.2,38.3,41.1,38.3"></path>	<path class="st0" d="M12.3,9.6c-1.2,0-2.1,1-2.1,2.1c0,1.2,1,2.1,2.1,2.1c1.2,0,2.1-1,2.1-2.1C14.5,10.6,13.5,9.6,12.3,9.6"></path>	<path class="st1" d="M41.1,9.6H19.5c-1.2,0-2.1,1-2.1,2.1c0,1.2,1,2.1,2.1,2.1h21.5c1.2,0,2.1-1,2.1-2.1  C43.2,10.6,42.2,9.6,41.1,9.6"></path>	<path class="st1" d="M12.3,42.6h21.5c1.2,0,2.1-1,2.1-2.1c0-1.2-1-2.1-2.1-2.1H12.3c-1.2,0-2.1,1-2.1,2.1  C10.2,41.6,11.2,42.6,12.3,42.6"></path>	<path class="st1" d="M70.3,39.2c2.9,0,4.9-1.2,4.9-3.4c0-1.7-1.3-2.6-3.6-3.3L68,31.3c-3.9-1.2-6.3-3.1-6.3-6.6  c0-4.1,3.5-6.6,8.6-6.6c3,0,5,0.9,6.1,1.5c0.7,0.4,1.1,0.8,1.1,1.5c0,0.8-0.8,1.9-1.6,1.9c-0.4,0-0.7-0.1-1-0.3  c-0.7-0.4-2.7-1.2-4.5-1.2c-2.9,0-4.9,1.1-4.9,3c0,1.7,1.4,2.6,3.6,3.3l3.5,1.1c4.1,1.3,6.3,3.2,6.3,6.7c0,4.2-3.5,6.9-8.6,6.9  c-3.9,0-6.5-1.4-8.1-3c-0.3-0.4-0.7-0.7-0.7-1.3c0-0.9,0.8-1.9,1.9-1.9c0.3,0,0.6,0,1.2,0.6C65.8,38.1,67.2,39.2,70.3,39.2"></path>	<path class="st1" d="M87.1,20.2c0,0.2,0.1,0.3,0.3,0.3c0.1,0,0.3-0.2,0.4-0.2c1.8-1.5,3.9-2,6.1-2c6.6,0,8.6,4.2,8.6,10.2V41  c0,1.2-0.9,1.6-1.8,1.6c-0.9,0-1.9-0.4-1.9-1.6V30.1c0-4.8-0.2-8.3-5.9-8.3c-4.1,0-5.8,2.2-5.8,6.5V41c0,1.2-0.9,1.6-1.8,1.6  c-0.9,0-1.8-0.4-1.8-1.6V11c0-1.2,0.9-1.6,1.8-1.6c0.9,0,1.8,0.4,1.8,1.6V20.2z"></path>	<path class="st0" d="M121.7,32.2c0-0.3-0.1-0.4-0.4-0.4h-4.4c-3.3,0-6.4,0.5-6.4,3.7c0,2.5,1.6,3.8,4.4,3.8c4.9,0,6.8-2.9,6.8-5.8  V32.2z M122,39.8c-0.1,0-0.3,0.2-0.5,0.3c-1.6,1.3-3.7,2.5-7.3,2.5c-5.7,0-7.5-3.5-7.5-6.7c0-6,5-7.5,9.8-7.5h4.8  c0.3,0,0.4-0.1,0.4-0.4v-1.2c0-3.4-1.7-5-5.4-5c-3,0-4.2,0.7-5.8,1.9c-0.2,0.2-0.5,0.2-0.7,0.2c-0.9,0-1.8-1-1.8-1.9  c0-0.5,0.3-1,0.8-1.4c2.2-1.8,5-2.2,7.6-2.2c7.6,0,9.2,3.7,9.2,9.6v10c0,0.9,0.2,1.3,1.1,1.3h0.4c0.8,0,1.3,0.7,1.3,1.6  c0,1.3-0.5,1.8-2.6,1.8c-1.9,0-3-0.8-3.5-2.6C122.1,39.8,122.1,39.8,122,39.8"></path>	<path class="st0" d="M135.5,41c0,1.2-0.9,1.6-1.8,1.6c-0.9,0-1.8-0.4-1.8-1.6V19.7c0-1.2,0.9-1.6,1.8-1.6c0.9,0,1.8,0.4,1.8,1.6V41  z"></path>	<path class="st1" d="M157.3,30.4c0-5.2-0.4-8.8-6.1-8.8c-5.5,0-5.8,4-5.8,8.8c0,4.4,0.1,8.8,5.8,8.8  C156.8,39.2,157.3,35.6,157.3,30.4 M161,30.4c0,7-1.8,12.3-9.2,12.3c-1.9,0-3.9-0.4-5.8-2c0,0-0.2-0.2-0.4-0.2  c-0.2,0-0.3,0.1-0.3,0.3v9.5c0,1.2-0.9,1.6-1.8,1.6c-0.9,0-1.8-0.4-1.8-1.6V19.7c0-1.2,0.9-1.6,1.8-1.6s1.8,0.4,1.8,1.6v0.3  c0,0.2,0.1,0.3,0.3,0.3c0.1,0,0.3-0.1,0.4-0.2c1.9-1.6,3.8-2,5.7-2C159.2,18.1,161,23.4,161,30.4"></path>	<path class="st0" d="M131.5,11.8c0-1.2,1-2.1,2.1-2.1c1.2,0,2.1,1,2.1,2.1c0,1.2-1,2.1-2.1,2.1C132.5,13.9,131.5,12.9,131.5,11.8"></path></g></svg>